<svg width="1440" height="1024" viewBox="0 0 1440 1024" fill="none" xmlns="http://www.w3.org/2000/svg">
<g clip-path="url(#clip0_368_899)">
<rect width="1440" height="1024" fill="white"/>
<path d="M-730.264 374.14C-661.768 459.317 -449.739 698.701 -149.594 974.827C225.588 1319.99 576.139 1665.08 747.744 1872.16" stroke="#CCCBCB"/>
<path d="M-719.601 363.478C-651.105 448.654 -439.076 688.038 -138.931 964.164C236.251 1309.32 586.802 1654.41 758.407 1861.5" stroke="#CCCBCB"/>
<path d="M-708.939 352.815C-640.443 437.991 -428.414 677.375 -128.268 953.502C246.914 1298.66 597.465 1643.75 769.07 1850.84" stroke="#CCCBCB"/>
<path d="M-698.276 342.152C-629.78 427.328 -417.751 666.713 -117.605 942.839C257.576 1288 608.127 1633.09 779.732 1840.18" stroke="#CCCBCB"/>
<path d="M-687.613 331.489C-619.117 416.666 -407.088 656.05 -106.942 932.176C268.24 1277.33 618.79 1622.43 790.395 1829.51" stroke="#CCCBCB"/>
<path d="M-676.951 320.827C-608.454 406.003 -396.425 645.387 -96.2798 921.514C278.902 1266.67 629.453 1611.76 801.058 1818.85" stroke="#CCCBCB"/>
<path d="M-666.288 310.164C-597.791 395.34 -385.763 634.724 -85.617 910.851C289.565 1256.01 640.116 1601.1 811.721 1808.19" stroke="#CCCBCB"/>
<path d="M-655.625 299.501C-587.129 384.678 -375.1 624.062 -74.9544 900.188C300.228 1245.35 650.778 1590.44 822.383 1797.53" stroke="#CCCBCB"/>
<path d="M-644.962 288.839C-576.466 374.015 -364.437 613.399 -64.2915 889.525C310.89 1234.68 661.441 1579.78 833.046 1786.86" stroke="#CCCBCB"/>
<path d="M-634.3 278.176C-565.804 363.352 -353.775 602.736 -53.6292 878.863C321.553 1224.02 672.104 1569.11 843.709 1776.2" stroke="#CCCBCB"/>
<path d="M-623.637 267.513C-555.141 352.689 -343.112 592.074 -42.9666 868.2C332.215 1213.36 682.766 1558.45 854.371 1765.54" stroke="#CCCBCB"/>
<path d="M-612.975 256.85C-544.478 342.027 -332.449 581.411 -32.3037 857.537C342.878 1202.7 693.429 1547.79 865.034 1754.88" stroke="#CCCBCB"/>
<path d="M-602.312 246.188C-533.816 331.364 -321.787 570.748 -21.6411 846.874C353.541 1192.03 704.092 1537.12 875.697 1744.21" stroke="#CCCBCB"/>
<path d="M-591.649 235.525C-523.153 320.701 -311.124 560.085 -10.9781 836.212C364.204 1181.37 714.755 1526.46 886.36 1733.55" stroke="#CCCBCB"/>
<path d="M-580.986 224.862C-512.49 310.039 -300.461 549.423 -0.31546 825.549C374.867 1170.71 725.417 1515.8 897.022 1722.89" stroke="#CCCBCB"/>
<path d="M-570.323 214.2C-501.827 299.376 -289.798 538.76 10.3474 814.886C385.529 1160.04 736.08 1505.14 907.685 1712.22" stroke="#CCCBCB"/>
<path d="M-559.661 203.537C-491.165 288.713 -279.136 528.097 21.01 804.224C396.192 1149.38 746.743 1494.47 918.348 1701.56" stroke="#CCCBCB"/>
<path d="M-548.998 192.874C-480.502 278.05 -268.473 517.435 31.6726 793.561C406.855 1138.72 757.405 1483.81 929.01 1690.9" stroke="#CCCBCB"/>
<path d="M-538.335 182.211C-469.839 267.388 -257.81 506.772 42.3354 782.898C417.517 1128.06 768.068 1473.15 939.673 1680.24" stroke="#CCCBCB"/>
<path d="M-527.673 171.549C-459.176 256.725 -247.148 496.109 52.998 772.236C428.18 1117.39 778.731 1462.49 950.336 1669.57" stroke="#CCCBCB"/>
<path d="M-517.01 160.886C-448.514 246.062 -236.485 485.446 63.6609 761.573C438.843 1106.73 789.394 1451.82 960.999 1658.91" stroke="#CCCBCB"/>
<path d="M-506.347 150.223C-437.851 235.4 -225.822 474.784 74.3235 750.91C449.505 1096.07 800.056 1441.16 971.661 1648.25" stroke="#CCCBCB"/>
<path d="M-495.684 139.561C-427.188 224.737 -215.159 464.121 84.9863 740.248C460.168 1085.41 810.719 1430.5 982.324 1637.59" stroke="#CCCBCB"/>
<path d="M-485.022 128.898C-416.526 214.074 -204.497 453.458 95.6489 729.585C470.831 1074.74 821.382 1419.83 992.987 1626.92" stroke="#CCCBCB"/>
<path d="M-474.359 118.235C-405.863 203.411 -193.834 442.796 106.311 718.922C481.493 1064.08 832.044 1409.17 1003.65 1616.26" stroke="#CCCBCB"/>
<path d="M-463.696 107.572C-395.2 192.749 -183.171 432.133 116.974 708.259C492.156 1053.42 842.707 1398.51 1014.31 1605.6" stroke="#CCCBCB"/>
<path d="M-453.034 96.9097C-384.538 182.086 -172.509 421.47 127.637 697.597C502.819 1042.75 853.37 1387.85 1024.97 1594.93" stroke="#CCCBCB"/>
<path d="M-442.371 86.247C-373.875 171.423 -161.846 410.807 138.3 686.934C513.482 1032.09 864.033 1377.18 1035.64 1584.27" stroke="#CCCBCB"/>
<path d="M-431.708 75.5843C-363.212 160.761 -151.183 400.145 148.962 676.271C524.144 1021.43 874.695 1366.52 1046.3 1573.61" stroke="#CCCBCB"/>
<path d="M-421.046 64.9216C-352.549 150.098 -140.52 389.482 159.625 665.608C534.807 1010.77 885.358 1355.86 1056.96 1562.95" stroke="#CCCBCB"/>
<path d="M-410.383 54.259C-341.886 139.435 -129.858 378.819 170.288 654.946C545.47 1000.1 896.021 1345.2 1067.63 1552.28" stroke="#CCCBCB"/>
<path d="M-401.819 45.6957C-333.323 130.872 -121.294 370.256 178.851 646.382C554.033 991.541 904.584 1336.63 1076.19 1543.72" stroke="#CCCBCB"/>
<path d="M-391.157 35.033C-322.661 120.209 -110.632 359.593 189.514 635.72C564.696 980.878 915.247 1325.97 1086.85 1533.06" stroke="#CCCBCB"/>
<path d="M-380.494 24.3703C-311.998 109.547 -99.9689 348.931 200.177 625.057C575.359 970.215 925.909 1315.31 1097.51 1522.39" stroke="#CCCBCB"/>
<path d="M-369.831 13.7075C-301.335 98.8838 -89.3063 338.268 210.839 614.394C586.021 959.552 936.572 1304.64 1108.18 1511.73" stroke="#CCCBCB"/>
<path d="M-359.169 3.04482C-290.673 88.2211 -78.6437 327.605 221.502 603.732C596.684 948.89 947.235 1293.98 1118.84 1501.07" stroke="#CCCBCB"/>
<path d="M-348.506 -7.61787C-280.01 77.5584 -67.9808 316.943 232.165 593.069C607.347 938.227 957.898 1283.32 1129.5 1490.41" stroke="#CCCBCB"/>
<path d="M-337.843 -18.2806C-269.347 66.8956 -57.3182 306.28 242.827 582.406C618.009 927.564 968.56 1272.66 1140.17 1479.74" stroke="#CCCBCB"/>
<path d="M-327.181 -28.9433C-258.684 56.233 -46.6554 295.617 253.49 571.744C628.672 916.902 979.223 1261.99 1150.83 1469.08" stroke="#CCCBCB"/>
<path d="M-316.518 -39.6061C-248.022 45.5702 -35.9928 284.954 264.153 561.081C639.335 906.239 989.886 1251.33 1161.49 1458.42" stroke="#CCCBCB"/>
<path d="M-305.855 -50.2689C-237.359 34.9074 -25.3302 274.292 274.815 550.418C649.997 895.576 1000.55 1240.67 1172.15 1447.76" stroke="#CCCBCB"/>
<path d="M-295.193 -60.9315C-226.696 24.2448 -14.6674 263.629 285.478 539.755C660.66 884.913 1011.21 1230.01 1182.82 1437.09" stroke="#CCCBCB"/>
<path d="M-284.53 -71.5942C-216.034 13.582 -4.00476 252.966 296.141 529.093C671.323 874.251 1021.87 1219.34 1193.48 1426.43" stroke="#CCCBCB"/>
<path d="M-273.867 -82.2569C-205.371 2.91937 6.65808 242.304 306.804 518.43C681.986 863.588 1032.54 1208.68 1204.14 1415.77" stroke="#CCCBCB"/>
<path d="M-263.204 -92.9197C-194.708 -7.74338 17.3207 231.641 317.466 507.767C692.648 852.925 1043.2 1198.02 1214.8 1405.11" stroke="#CCCBCB"/>
<path d="M-252.542 -103.582C-184.045 -18.406 27.9835 220.978 328.129 497.105C703.311 842.263 1053.86 1187.35 1225.47 1394.44" stroke="#CCCBCB"/>
<path d="M-241.879 -114.245C-173.383 -29.0688 38.6461 210.315 338.792 486.442C713.974 831.6 1064.52 1176.69 1236.13 1383.78" stroke="#CCCBCB"/>
<path d="M-231.216 -124.908C-162.72 -39.7315 49.309 199.653 349.455 475.779C724.637 820.937 1075.19 1166.03 1246.79 1373.12" stroke="#CCCBCB"/>
<path d="M-220.554 -135.57C-152.057 -50.3942 59.9716 188.99 360.117 465.116C735.299 810.274 1085.85 1155.37 1257.45 1362.45" stroke="#CCCBCB"/>
<path d="M-209.891 -146.233C-141.394 -61.0569 70.6346 178.327 370.78 454.454C745.962 799.612 1096.51 1144.7 1268.12 1351.79" stroke="#CCCBCB"/>
<path d="M-199.228 -156.896C-130.732 -71.7196 81.2972 167.665 381.443 443.791C756.625 788.949 1107.18 1134.04 1278.78 1341.13" stroke="#CCCBCB"/>
<path d="M-188.565 -167.559C-120.069 -82.3823 91.9598 157.002 392.105 433.128C767.287 778.286 1117.84 1123.38 1289.44 1330.47" stroke="#CCCBCB"/>
<path d="M-177.902 -178.221C-109.406 -93.045 102.623 146.339 402.768 422.466C777.95 767.624 1128.5 1112.72 1300.11 1319.8" stroke="#CCCBCB"/>
<path d="M-167.24 -188.884C-98.7439 -103.708 113.285 135.676 413.431 411.803C788.613 756.961 1139.16 1102.05 1310.77 1309.14" stroke="#CCCBCB"/>
<path d="M-156.578 -199.547C-88.0813 -114.371 123.948 125.014 424.093 401.14C799.275 746.298 1149.83 1091.39 1321.43 1298.48" stroke="#CCCBCB"/>
<path d="M-145.915 -210.209C-77.4184 -125.033 134.61 114.351 434.756 390.477C809.938 735.635 1160.49 1080.73 1332.09 1287.82" stroke="#CCCBCB"/>
<path d="M-135.252 -220.872C-66.7558 -135.696 145.273 103.688 445.419 379.815C820.601 724.973 1171.15 1070.06 1342.76 1277.15" stroke="#CCCBCB"/>
<path d="M-124.589 -231.535C-56.093 -146.359 155.936 93.0255 456.082 369.152C831.264 714.31 1181.81 1059.4 1353.42 1266.49" stroke="#CCCBCB"/>
<path d="M-113.926 -242.198C-45.4302 -157.021 166.599 82.3628 466.744 358.489C841.926 703.647 1192.48 1048.74 1364.08 1255.83" stroke="#CCCBCB"/>
<path d="M-103.264 -252.86C-34.7673 -167.684 177.262 71.7002 477.407 347.827C852.589 692.985 1203.14 1038.08 1374.74 1245.16" stroke="#CCCBCB"/>
<path d="M-92.601 -263.523C-24.1047 -178.347 187.924 61.0374 488.07 337.164C863.252 682.322 1213.8 1027.41 1385.41 1234.5" stroke="#CCCBCB"/>
<path d="M-81.9381 -274.186C-13.4419 -189.009 198.587 50.3747 498.733 326.501C873.915 671.659 1224.47 1016.75 1396.07 1223.84" stroke="#CCCBCB"/>
<path d="M-71.7457 -284.378C-3.24949 -199.202 208.779 40.1826 508.925 316.309C884.107 661.467 1234.66 1006.56 1406.26 1213.65" stroke="#CCCBCB"/>
<path d="M-61.0832 -295.041C7.4131 -209.864 219.442 29.5199 519.588 305.646C894.77 650.804 1245.32 995.896 1416.93 1202.98" stroke="#CCCBCB"/>
<path d="M-50.4203 -305.703C18.0759 -220.527 230.105 18.8572 530.25 294.984C905.432 640.142 1255.98 985.233 1427.59 1192.32" stroke="#CCCBCB"/>
<path d="M-39.7577 -316.366C28.7385 -231.19 240.767 8.19448 540.913 284.321C916.095 629.479 1266.65 974.571 1438.25 1181.66" stroke="#CCCBCB"/>
<path d="M-29.0951 -327.029C39.4011 -241.853 251.43 -2.46836 551.576 273.658C926.758 618.816 1277.31 963.908 1448.91 1171" stroke="#CCCBCB"/>
<path d="M-18.4323 -337.691C50.064 -252.515 262.093 -13.131 562.238 262.995C937.42 608.153 1287.97 953.245 1459.58 1160.33" stroke="#CCCBCB"/>
<path d="M-7.76967 -348.354C60.7266 -263.178 272.755 -23.7937 572.901 252.333C948.083 597.491 1298.63 942.583 1470.24 1149.67" stroke="#CCCBCB"/>
<path d="M2.89317 -359.017C71.3894 -273.84 283.418 -34.4563 583.564 241.67C958.746 586.828 1309.3 931.92 1480.9 1139.01" stroke="#CCCBCB"/>
<path d="M13.556 -369.68C82.0523 -284.503 294.081 -45.1191 594.227 231.007C969.409 576.165 1319.96 921.257 1491.56 1128.35" stroke="#CCCBCB"/>
<path d="M24.2184 -380.342C92.7146 -295.166 304.744 -55.782 604.889 220.344C980.071 565.502 1330.62 910.594 1502.23 1117.68" stroke="#CCCBCB"/>
<path d="M34.8812 -391.005C103.377 -305.829 315.406 -66.4446 615.552 209.682C990.734 554.84 1341.28 899.932 1512.89 1107.02" stroke="#CCCBCB"/>
<path d="M45.5438 -401.668C114.04 -316.491 326.069 -77.1073 626.215 199.019C1001.4 544.177 1351.95 889.269 1523.55 1096.36" stroke="#CCCBCB"/>
<path d="M56.2066 -412.33C124.703 -327.154 336.732 -87.77 636.877 188.356C1012.06 533.514 1362.61 878.606 1534.22 1085.69" stroke="#CCCBCB"/>
<path d="M66.8692 -422.993C135.365 -337.817 347.394 -98.4327 647.54 177.694C1022.72 522.852 1373.27 867.944 1544.88 1075.03" stroke="#CCCBCB"/>
<path d="M77.5321 -433.656C146.028 -348.48 358.057 -109.095 658.203 167.031C1033.38 512.189 1383.94 857.281 1555.54 1064.37" stroke="#CCCBCB"/>
<path d="M88.1947 -444.319C156.691 -359.142 368.72 -119.758 668.865 156.368C1044.05 501.526 1394.6 846.618 1566.2 1053.71" stroke="#CCCBCB"/>
<path d="M98.8575 -454.981C167.354 -369.805 379.383 -130.421 679.528 145.706C1054.71 490.864 1405.26 835.955 1576.87 1043.04" stroke="#CCCBCB"/>
<path d="M109.52 -465.644C178.017 -380.468 390.046 -141.084 690.191 135.043C1065.37 480.201 1415.92 825.293 1587.53 1032.38" stroke="#CCCBCB"/>
<path d="M120.183 -476.307C188.679 -391.13 400.708 -151.746 700.854 124.38C1076.04 469.538 1426.59 814.63 1598.19 1021.72" stroke="#CCCBCB"/>
<path d="M130.846 -486.969C199.342 -401.793 411.371 -162.409 711.517 113.717C1086.7 458.875 1437.25 803.967 1608.85 1011.06" stroke="#CCCBCB"/>
<path d="M141.508 -497.632C210.005 -412.456 422.034 -173.072 722.179 103.055C1097.36 448.213 1447.91 793.305 1619.52 1000.39" stroke="#CCCBCB"/>
<path d="M152.171 -508.295C220.667 -423.119 432.696 -183.734 732.842 92.3921C1108.02 437.55 1458.57 782.642 1630.18 989.73" stroke="#CCCBCB"/>
<path d="M162.834 -518.957C231.33 -433.781 443.359 -194.397 743.505 81.7293C1118.69 426.887 1469.24 771.979 1640.84 979.067" stroke="#CCCBCB"/>
<path d="M173.496 -529.62C241.992 -444.444 454.021 -205.06 754.167 71.0666C1129.35 416.225 1479.9 761.316 1651.5 968.404" stroke="#CCCBCB"/>
<path d="M184.159 -540.283C252.655 -455.107 464.684 -215.723 764.83 60.4039C1140.01 405.562 1490.56 750.654 1662.17 957.742" stroke="#CCCBCB"/>
<path d="M194.822 -550.946C263.318 -465.769 475.347 -226.385 775.492 49.7411C1150.67 394.899 1501.23 739.991 1672.83 947.079" stroke="#CCCBCB"/>
<path d="M205.484 -561.608C273.981 -476.432 486.01 -237.048 786.155 39.0785C1161.34 384.236 1511.89 729.328 1683.49 936.416" stroke="#CCCBCB"/>
<path d="M216.147 -572.271C284.644 -487.095 496.672 -247.711 796.818 28.4157C1172 373.574 1522.55 718.666 1694.16 925.754" stroke="#CCCBCB"/>
<path d="M226.81 -582.934C295.306 -497.758 507.335 -258.373 807.481 17.753C1182.66 362.911 1533.21 708.003 1704.82 915.091" stroke="#CCCBCB"/>
<path d="M237.473 -593.597C305.969 -508.42 517.998 -269.036 818.144 7.09029C1193.33 352.248 1543.88 697.34 1715.48 904.428" stroke="#CCCBCB"/>
<path d="M248.136 -604.259C316.632 -519.083 528.661 -279.699 828.806 -3.57236C1203.99 341.586 1554.54 686.678 1726.14 893.766" stroke="#CCCBCB"/>
<path d="M256.699 -612.822C325.195 -527.646 537.224 -288.262 837.369 -12.1357C1212.55 333.022 1563.1 678.114 1734.71 885.202" stroke="#CCCBCB"/>
<path d="M267.361 -623.485C335.858 -538.309 547.887 -298.925 848.032 -22.7982C1223.21 322.36 1573.76 667.452 1745.37 874.54" stroke="#CCCBCB"/>
<path d="M278.024 -634.148C346.521 -548.972 558.549 -309.587 858.695 -33.461C1233.88 311.697 1584.43 656.789 1756.03 863.877" stroke="#CCCBCB"/>
<path d="M288.687 -644.811C357.183 -559.634 569.212 -320.25 869.358 -44.1237C1244.54 301.034 1595.09 646.126 1766.7 853.214" stroke="#CCCBCB"/>
<path d="M299.35 -655.473C367.846 -570.297 579.875 -330.913 880.02 -54.7865C1255.2 290.371 1605.75 635.463 1777.36 842.551" stroke="#CCCBCB"/>
<path d="M310.012 -666.136C378.509 -580.96 590.537 -341.576 890.683 -65.4493C1265.87 279.709 1616.42 624.801 1788.02 831.889" stroke="#CCCBCB"/>
<path d="M320.675 -676.799C389.171 -591.622 601.2 -352.238 901.346 -76.1119C1276.53 269.046 1627.08 614.138 1798.68 821.226" stroke="#CCCBCB"/>
<path d="M331.338 -687.461C399.834 -602.285 611.863 -362.901 912.009 -86.7746C1287.19 258.383 1637.74 603.475 1809.35 810.563" stroke="#CCCBCB"/>
<path d="M342.001 -698.124C410.497 -612.948 622.526 -373.564 922.671 -97.4373C1297.85 247.721 1648.4 592.813 1820.01 799.901" stroke="#CCCBCB"/>
<path d="M352.663 -708.787C421.159 -623.611 633.188 -384.227 933.334 -108.1C1308.52 237.058 1659.07 582.15 1830.67 789.238" stroke="#CCCBCB"/>
<path d="M363.326 -719.45C431.822 -634.273 643.851 -394.889 943.996 -118.763C1319.18 226.395 1669.73 571.487 1841.33 778.575" stroke="#CCCBCB"/>
<path d="M373.988 -730.112C442.485 -644.936 654.514 -405.552 954.659 -129.425C1329.84 215.733 1680.39 560.824 1852 767.912" stroke="#CCCBCB"/>
<path d="M384.651 -740.775C453.147 -655.599 665.176 -416.215 965.322 -140.088C1340.5 205.07 1691.05 550.162 1862.66 757.25" stroke="#CCCBCB"/>
<path d="M395.314 -751.438C463.81 -666.261 675.839 -426.877 975.985 -150.751C1351.17 194.407 1701.72 539.499 1873.32 746.587" stroke="#CCCBCB"/>
<path d="M405.977 -762.1C474.473 -676.924 686.502 -437.54 986.647 -161.414C1361.83 183.744 1712.38 528.836 1883.99 735.924" stroke="#CCCBCB"/>
<path d="M416.64 -772.763C485.136 -687.587 697.165 -448.203 997.31 -172.076C1372.49 173.082 1723.04 518.174 1894.65 725.262" stroke="#CCCBCB"/>
<path d="M427.302 -783.426C495.798 -698.25 707.827 -458.865 1007.97 -182.739C1383.15 162.419 1733.71 507.511 1905.31 714.599" stroke="#CCCBCB"/>
<path d="M437.965 -794.089C506.461 -708.912 718.49 -469.528 1018.64 -193.402C1393.82 151.756 1744.37 496.848 1915.97 703.936" stroke="#CCCBCB"/>
<path d="M448.628 -804.751C517.124 -719.575 729.153 -480.191 1029.3 -204.064C1404.48 141.094 1755.03 486.186 1926.64 693.273" stroke="#CCCBCB"/>
<path d="M459.29 -815.414C527.786 -730.238 739.815 -490.853 1039.96 -214.727C1415.14 130.431 1765.69 475.523 1937.3 682.611" stroke="#CCCBCB"/>
<path d="M469.953 -826.077C538.449 -740.9 750.478 -501.516 1050.62 -225.39C1425.81 119.768 1776.36 464.86 1947.96 671.948" stroke="#CCCBCB"/>
<path d="M480.616 -836.739C549.112 -751.563 761.141 -512.179 1061.29 -236.053C1436.47 109.105 1787.02 454.197 1958.62 661.285" stroke="#CCCBCB"/>
<path d="M491.278 -847.402C559.775 -762.226 771.804 -522.842 1071.95 -246.715C1447.13 98.4428 1797.68 443.535 1969.29 650.623" stroke="#CCCBCB"/>
<path d="M501.941 -858.065C570.437 -772.889 782.466 -533.504 1082.61 -257.378C1457.79 87.78 1808.34 432.872 1979.95 639.96" stroke="#CCCBCB"/>
<path d="M512.604 -868.728C581.1 -783.551 793.129 -544.167 1093.27 -268.041C1468.46 77.1172 1819.01 422.209 1990.61 629.297" stroke="#CCCBCB"/>
<path d="M523.266 -879.39C591.763 -794.214 803.792 -554.83 1103.94 -278.704C1479.12 66.4545 1829.67 411.546 2001.28 618.634" stroke="#CCCBCB"/>
<path d="M533.929 -890.053C602.425 -804.877 814.454 -565.493 1114.6 -289.366C1489.78 55.7919 1840.33 400.884 2011.94 607.972" stroke="#CCCBCB"/>
<path d="M544.592 -900.716C613.088 -815.539 825.117 -576.155 1125.26 -300.029C1500.44 45.1292 1851 390.221 2022.6 597.309" stroke="#CCCBCB"/>
<path d="M555.254 -911.378C623.751 -826.202 835.78 -586.818 1135.93 -310.692C1511.11 34.4664 1861.66 379.558 2033.26 586.646" stroke="#CCCBCB"/>
<path d="M565.918 -922.041C634.414 -836.865 846.443 -597.481 1146.59 -321.354C1521.77 23.8037 1872.32 368.896 2043.93 575.984" stroke="#CCCBCB"/>
<path d="M576.58 -932.704C645.076 -847.528 857.105 -608.143 1157.25 -332.017C1532.43 13.141 1882.98 358.233 2054.59 565.321" stroke="#CCCBCB"/>
</g>
<defs>
<clipPath id="clip0_368_899">
<rect width="1440" height="1024" fill="white"/>
</clipPath>
</defs>
</svg>
